<svg width="1440" height="900" viewBox="0 0 1440 900" fill="none" xmlns="http://www.w3.org/2000/svg">
<mask id="mask0" mask-type="alpha" maskUnits="userSpaceOnUse" x="0" y="0" width="1440" height="900">
<rect width="1440" height="900" fill="white"/>
</mask>
<g mask="url(#mask0)">
<path d="M474 347.5C255.2 299.9 45.1667 397 -32.5 451.5L-121.5 939L65 1108.5L673 1189L1608 888C1592.33 716.333 1549.6 363.2 1504 324C1447 275 1249.5 434.5 1006 441C762.5 447.5 747.5 407 474 347.5Z" fill="#FF9838"/>
<path d="M474 445.837C255.2 398.237 45.1667 495.337 -32.5 549.837L-121.5 1037.34L65 1206.84L673 1287.34L1608 986.337C1592.33 814.67 1549.6 461.537 1504 422.337C1447 373.337 1249.5 532.837 1006 539.337C762.5 545.837 747.5 505.337 474 445.837Z" fill="white"/>
</g>
</svg>
